<svg xmlns="http://www.w3.org/2000/svg" version="1.1" xmlns:xlink="http://www.w3.org/1999/xlink" xmlns:svgjs="http://svgjs.com/svgjs" width="1200" height="1200"><svg version="1.1" id="SvgjsSvg1000" xmlns="http://www.w3.org/2000/svg" xmlns:xlink="http://www.w3.org/1999/xlink" x="0px" y="0px" viewBox="0 0 1200 1200" style="enable-background:new 0 0 1200 1200;" xml:space="preserve">
<g>
	<path d="M1066.1,412.5c3.1-6.5,2.6-14.2-1.3-20.2c-3.7-5.7-7.5-11.8-11.5-18.1c-19.7-31.5-43.5-69.3-75-92.4
		c-16.9-22.7-35.2-43.9-55.4-61.3c-15.1-13-33.4-25.8-53.3-36.7c-3.9-2.3-7.9-4.5-12-6.7c-12.6-6.6-34.3-16.5-55.6-19.5
		c-15.5-3.4-30.8-4.9-45.3-3.7c-7.2,0.6-13.6,5-16.8,11.4c-17.7-7.7-38.1-10.8-63.2-6.4l-0.8,0.1c-18.9-30.2-54.1-36.5-86.7-39
		c-2-1.2-4-2.4-6.1-3.6c-3.5-4.6-8.7-7.6-14.5-8.2c-21.7-11.8-46-22.6-66.8-22.4c-11,0.3-19.8,8.8-20.3,19.9
		c-0.3,7.5,3.4,14.2,9.3,18.1c-36.9,9.9-73.4,24.1-107.3,47.2c-7.2-5.6-17.2-5.9-24.7-0.5c-7.4,5.3-13.6,12.4-19.2,20
		c-1.8,1.5-3.6,3.1-5.6,4.9c-8.8,8.2-16.4,20-24.3,32.4c-4,6.2-9.5,14.7-14.6,21.5c-5.8,5.1-11.7,9.8-17.9,14.2
		c-1.1,0.8-2.2,1.7-3.1,2.7c-4-0.8-8.1-0.3-11.9,1.2c-8.9,3.8-15.7,11-21.3,19.6c-7-27.7-16.6-55.3-26.1-82.1
		c-8.7-24.7-17.7-50.2-24.3-75c-2.1-8.2-9-14.1-17.1-15.2c-4-5.8-10.7-9.1-17.8-8.9c-7.1,0.3-13.7,4.2-17.2,10.4
		c-18.6,32.5-33.6,80-45.6,145.1L90,271.5c-11.6,44.8-23.6,91.1-32.2,137.1c-1.6,8.6,2.4,17.3,9.9,21.7l11.5,6.7
		c3.8,12.1,9.8,22.7,17.5,32.3c-8.7,3.9-14,13.1-12,22.8c3.5,17,6.2,34.4,8.6,51.7c-1.6,5.3-3.1,10.8-4.8,16.2
		c-2.6,8.9,1.1,18.6,9,23.4c0.4,0.2,0.7,0.4,1.1,0.6c1,7.7,2,15.4,3.2,23.2c-0.6,1.7-0.9,3.4-1,5.2c-1.1,18.3,4.2,36.1,8.9,51.9
		c0.1,0.3,0.2,0.6,0.3,0.9c-9.2,2.1-16,10.3-16.1,20c-0.3,29.7,9.7,55,19.2,79.5c2.2,5.5,4.3,11,6.3,16.5c-1.3,0.9-2.5,1.9-3.5,3.1
		c-6.7,7.5-7.1,18.7-1,26.6c5,6.3,10,12.7,15,19.2c0.5,1.2,1.1,2.4,1.6,3.7c2.9,6.9,6.5,14.9,12,22.4c-3.7,2.8-6.5,7-7.6,11.9
		c-2.3,10.2,3.3,20.6,13.2,24c14.7,5.2,28.4,15.1,41.8,26.9c10.1,12.4,19.5,27.7,28.4,42.2c10.2,16.5,20,32.4,30.8,44.7
		c-1.1,2.9-1.6,6.1-1.2,9.5c0.9,9,7.6,16.3,16.5,18.2l4.5,0.8c3.8,0.8,7.3,1.5,10.4,2.2c12.2,11,26.1,21.1,41.4,25.3
		c-3.2,3.8-5.1,8.6-5,13.8c0.1,8.5,5.5,16.1,13.5,19.1c9.6,3.6,19,6.2,28.1,8.7c10.7,3,21,5.8,30.8,10c3.9,1.6,8.5,4.1,13.3,6.6
		c16.7,8.9,37.6,19.8,57.4,16.2l0.2,0c7.4-1.3,13.4-6.5,15.8-13.6c1-2.8,1.2-5.5,1.1-8.4c7.3,0.6,14.6,0.5,21.6,0.2
		c-0.2,0.9-0.4,1.7-0.5,2.6c-1.4,10,2.6,19.9,11,27.1c13.1,11.2,34.1,9.1,58.1,5.7c3.1-0.5,5.7-0.8,7.5-1c6.7-0.5,13.3-0.7,19.8-0.7
		c3.2,2,7,3,11,3c8.3-0.1,16.5-0.6,24.7-1.5c3.7,0.3,7.5,0.5,11.3,0.8l8.7,0.7c6.9,0.6,15.6,1.4,24.2-0.2c3.9-0.7,7.7-1.8,11.4-3.6
		c6-3,9.7-7.1,12.4-10.6c1.8-0.7,3.8-1.5,5.6-2.2c7.7-3,17.2-6.8,25.1-13.6c2.3-2,4.1-4.5,5.3-7.1c1.6-1.1,3.1-2.2,4.7-3.3
		c19-14.3,38.6-17.7,65.7-22.4l9.4-1.6c8.7-1.5,15.1-8.2,16.7-16.4c6.7-2.1,13.3-3.9,20-5.7c1.9,1.3,4.1,2.4,6.4,3
		c6.8,1.9,14,0.3,19.2-4.4c14.2-12.3,29.9-24.8,42.2-34.4c6.3-5,13.3-9.7,20.4-14.4c12.3-8.3,25.4-17.3,36.9-28.2
		c4.3-2.9,8.2-6.5,11.7-10.6c10.5-1,18.5-10.2,18.2-21c0-0.1,0.1-0.2,0-0.3c2.1-2.3,4-4.7,6-7.1c25.1-32,36-68.5,46.5-103.7
		c3.4-11.4,6.8-23.1,10.9-34.4c0.9-2.7,2.1-5.8,3.4-9.2c3.1-8.3,6.8-17.9,9.7-28c4.8,3.3,10.9,4.6,16.8,2.9
		c6.8-1.7,12.2-6.8,14.5-13.4c8.1-23.4,2.2-48.7-3-70.9c-2.1-8.8-4-17.2-4.8-24.3c-1.2-10.4-1.9-20.9-2.4-31.6
		c2.5-3.8,3.8-8.5,3.2-13.4c-0.3-3.5-1-6.9-1.8-10.1c-1-5.4-2-10.8-3-16.2c-0.9-19-2.4-38.4-6.4-57.8c-0.2-0.9-0.4-1.8-0.6-2.7
		c-0.1-0.3-0.1-0.6-0.2-0.9c5-4,8.1-10.2,7.8-17c-1.4-37.4-19.1-71-37.8-101.2C1065.2,414.1,1065.7,413.3,1066.1,412.5L1066.1,412.5
		z M116.5,380.4l2.6-18.3c3.9-28.1,8.3-59.9,14.1-91.8l3.2-12.3c5.6-12.3,12.4-24.2,19.6-36.8c3.6-6.3,7.3-12.7,10.8-19.2
		c2.9,9.8,5.5,19.8,8.2,30.1l3.4,12.9c4.4,16.3,10.7,33.1,16.8,49.3c4,10.7,8.1,21.4,11.6,32.2c1.1,7.7,1.5,15.6,1.8,23.7
		c0,0.1-0.1,0.1-0.1,0.2c0.1,0.5,0.1,1.1,0.2,1.6c0.6,31.1-4.2,63.7-9.6,89.5c-17.8,6-55.5-14.6-83.3-30.9
		C114.7,401.6,114.9,391.4,116.5,380.4L116.5,380.4z M1060.4,607.3c0.2,0.6,0.5,1.2,0.6,1.7c0.1,2.7,0.1,5.3,0.3,8.1
		c0.3,10.5,0.8,21.2,1.4,31.9c-4.9,3-8.6,8-9.7,14c-1.5,8.2-1.6,20.7-0.3,34.4c-0.5,2-1.1,4.1-1.7,6.1c-4.1,2.8-7.2,7.1-8.5,12.3
		c-2.3,9.5-4.6,19.3-6.9,29.1c-0.1,0.2-0.1,0.3-0.2,0.5c-2.1,6.6-3.8,13.4-4.8,20.5c-3.3,13.7-6.6,27.5-10.4,41
		c-4.1,6.7-9.1,15-15.7,25.4c-3.1,4.8-5.3,8.4-6,9.7c-12.6,24.2-27,57.1-32.1,88.7c-1.7,1.7-3.1,3.6-4.2,5.9
		c-0.6,1.2-1.1,2.4-1.8,3.5c-5.8,4.6-12.1,9.1-18.9,13.8l-1.9,1.3c-4.8,3.4-7.8,8.5-8.6,14.2c-4.9,3.6-10.1,7-15.3,10.6
		c-7.8,5.4-15.6,10.6-22.6,16.1c-8.9,6.9-19.6,15.4-30.4,24.3c-2.6-0.4-5.3-0.3-7.8,0.4c-52.6,12.5-103.1,32.5-151.9,51.8
		c-30.3,12-61.5,24.3-92.4,34.5c-12.7-0.5-25.3-0.5-38.7,0.5c-0.2,0-0.4,0-0.6,0c4.8-4.5,7.2-11.2,6.3-18
		c-1.3-9.1-8.4-16.3-17.6-17.6c-16.1-2.3-31.7-1.1-46.8,0c-8.9,0.6-17.4,1.3-25.7,1.2c2.3-4.6,2.9-10,1.3-15.1
		c-2.5-8.5-10.3-14.4-19.1-14.8l-10.1-0.4c-22.9-0.9-47.4-1.8-71.6,0.2c-7.5-4.5-14.6-8.8-21-13.2c-2.6-1.8-5.5-3.9-8.8-6.2
		c-17.3-12.6-40.7-29.5-65.2-33.4c-0.9-0.9-1.7-1.8-2.6-2.6l-6.2-6.5c-4.9-5-9.9-11.7-15.1-19.4c0.4-0.5,0.8-1.1,1-1.6
		c4.8-8.3,3.3-18.8-3.6-25.4c-5.6-5.3-11.2-11.1-17-17c-1-1-1.9-2-3-3c-1.4-2.4-2.8-4.7-3.8-6.4c-3.7-6.4-7.2-12.4-11.3-17.5
		l-5.7-7.2c-14.6-18.3-29.2-36.6-43.8-54.9c9.7-5.7,13.1-18.1,7.7-27.9c-2.9-5.2-6.9-21.5-10.4-35.9c-3.5-14.5-7.3-29.4-11.7-43.4
		c-4.3-18.2-9.2-37.4-14.8-57.8c-1-3.8-2.2-7.7-3.3-11.6l-1.3-4.4c8.7-2.2,15.2-9.9,15.7-19.2c0.8-18-3-36.2-6.5-52.2
		c-1.3-5.6-2.4-11.2-3.4-16.6c-0.5-2.7-0.8-6.2-1.1-9.9c-0.8-9.8-1.8-21-5.4-30.9c0-0.9,0.1-1.8,0.1-2.7c1.4-3.3,3.1-6.8,4.9-10.3
		c15,5.4,31.8,9.6,51,12.1c2.2,0.3,4.3,0.2,6.3-0.1c7.5-1.3,13.9-6.8,16.2-14.5c3.9-13,7.4-26.1,10.4-39.2
		c15.3-17.4,22.6-46.2,22.1-87.6c0-2.7-0.3-5.4-0.5-8.2c0.1,0,0.1,0,0.2,0c9.4,1.1,18.4-4.3,21.7-13.2c6.3-16.5,19.1-40.2,32-58.9
		c5.8-8.5,12.5-16.4,19.6-24.7c7.7-7,15.1-14.2,22.4-21.3c10.6-10.2,20.5-20,31-28.9c43.7-37.4,94-54.1,146.9-65.4
		c12.1,2.1,25.3,2.9,38.1,3.6c0.5,0.1,1.1,0.1,1.6,0.1c3.8,1.9,7.8,3.9,11.9,6c7.9,4,16,8.1,24.1,12c18.2,10.6,36.9,21.1,56.8,28.8
		c6.8,5.4,15.5,7.5,24.9,5.9l0.3-0.1c7.8-1.4,13.9-7.1,16.2-14.3c25.2,2.8,43.3,20.3,69.9,48.2c3.4,3.6,7,7.3,10.6,11
		c6.4,6.6,16.6,8.2,24.7,3.8c8.2-4.3,12.4-13.6,10.4-22.6c-1-4.3-2.8-8.3-5.2-12.2c15.8,6.3,30.6,12.8,42.5,21.7
		c29.1,22.2,55.9,52.8,81.6,82.3l15.3,17.5c15.9,18.1,33.9,38.7,52,55.9c1.1,1.1,2.4,2.3,3.7,3.4c2.2,3.7,4.7,7.5,7.2,11.2
		c1.7,2.7,3.5,5.4,5.2,8.1l7.8,34.9c7.6,33.8,15.4,68.4,22.5,103.1c-0.6,5.9-0.9,12.2,0.1,19.1
		C1055.1,592.4,1057.9,600.3,1060.4,607.3L1060.4,607.3z"></path>
	<path d="M324.6,721c15.4-33.8,29.7-70.3,43.4-105.6c6.3-16.1,12.7-32.5,19.2-48.7c19.4,8,40.8,37.9,64.1,72.8
		c12.2,18.2,23.6,35.4,34.8,46.5c6.5,6.5,16.6,7.9,24.6,3.4c8-4.5,12.2-13.7,10.1-22.7c-1.6-6.8-3.8-13.3-6.7-19.5
		c0.5,0.2,1.1,0.4,1.6,0.6c7.1,2.4,13.8,4.7,19.6,6.9c7.2,2.7,15.4,1.3,21.1-3.9c5.8-5.1,8.2-13,6.3-20.5
		c-9.9-39.8-45.7-94.7-88.4-117.5c-22.2-11.9-44.9-14.3-65.7-6.9c-2.6,0.9-5,2.4-6.9,4.2c-1.3-2.2-3.1-4.2-5.3-5.8
		c-7.6-5.8-18.2-5.6-25.6,0.5c-27.3,22.5-53.2,48.9-69.1,70.8c-22.9,31.5-26.3,53.3-30.2,78.7c-1.9,12.4-3.9,25.2-8.4,41.6
		c-3.1,11,3.4,22.4,14.4,25.5c3.3,0.9,6.6,1.2,9.6,0.3c3.1,6.2,9.2,10.6,16.4,11.3c1.9,0.2,3.9,0.1,5.8-0.2
		C315.9,731.6,321.7,727.2,324.6,721L324.6,721z M454.9,549.1c18.3,9.8,36.3,29.7,49.4,50.6c-16.5-6.2-33-13.6-44.3-23
		c-5.2-6.2-10-12.4-13.8-18.6c-0.5-1.2-1.2-2.3-1.9-3.3c-2.1-3.8-3.9-7.6-5.2-11.4C444,544.2,449.3,546.1,454.9,549.1L454.9,549.1z"></path>
	<path d="M824.4,450.5c-22.2-11.9-45-14.3-65.8-6.9c-2.6,0.9-5,2.4-7,4.2c-1.3-2.2-3.1-4.2-5.3-5.8c-7.6-5.8-18.2-5.6-25.6,0.5
		c-27.3,22.4-53.1,48.9-69,70.8c-22.9,31.5-26.3,53.3-30.2,78.7c-1.9,12.4-3.9,25.2-8.4,41.6c-3.1,11,3.4,22.4,14.4,25.5
		c3.3,0.9,6.6,1.2,9.6,0.3c3.1,6.2,9.2,10.6,16.4,11.3c1.9,0.2,3.9,0.1,5.8-0.2c6.6-1.2,12.3-5.5,15.2-11.8
		c15.4-33.7,29.6-70.2,43.4-105.4c6.3-16.2,12.7-32.7,19.3-48.9c19.4,8.1,40.8,37.9,64,72.8c12.2,18.2,23.6,35.4,34.8,46.5
		c6.5,6.5,16.6,7.9,24.6,3.4c8.1-4.4,12.2-13.7,10.1-22.7c-1.6-6.8-3.8-13.3-6.7-19.5c0.5,0.2,1.1,0.4,1.6,0.6
		c7.1,2.4,13.8,4.7,19.6,6.9c7.2,2.7,15.4,1.2,21.1-3.9c5.8-5.1,8.2-13,6.3-20.5C902.8,528.1,867,473.3,824.4,450.5L824.4,450.5z
		 M809.7,514.5c-5.2-6.2-9.9-12.2-13.6-18.3c-0.6-1.3-1.4-2.6-2.2-3.7c-2.1-3.7-3.8-7.5-5.1-11.3c5,0.8,10.3,2.8,15.9,5.7
		c18.3,9.8,36.3,29.7,49.4,50.6C837.7,531.3,821.1,523.8,809.7,514.5L809.7,514.5z"></path>
	<path d="M850.4,762.6c-30.6-6.5-76.7,8.9-121.9,26.4c-45.1,17.6-88.8,29-133.6,34.8c-19,2.5-38.4,5.6-58.8,8.9
		c-4-8.6-13.5-13.1-23.1-11.6c-18.3,3.9-36.8,5.7-56.4,7.6c-28,2.8-57.1,5.6-86.1,14.9c-4.1,1.3-7.6,3.8-10.1,7.1
		c-2-0.1-3.9-0.2-5.8-0.3c-1.2-0.1-2.4-0.2-3.7-0.2c-11.3-0.2-20.6,8.6-21.1,19.8c-0.5,11.2,8.1,20.8,19.3,21.6
		c0.6,0,1.2,0.1,1.8,0.1c5.8,0.9,14.2,9.6,21.5,17.6c2.7,7.2,6.6,13.1,9.7,17.9c0.1,0.1,0.2,0.3,0.2,0.4c1.9,5.9,3.9,10.5,9,17
		c5.1,6.5,13.5,9.4,21.1,7.4c8.3,5.4,17.1,10.4,25.7,15.3c3.4,1.9,6.9,3.9,10.2,5.9c10.3,17,27.6,30.2,46.4,35.5
		c8.3,2.3,17.2-0.8,22.3-7.8c2.2-3,3.5-6.5,3.9-10c4.4,2.7,9.2,5.4,14.4,7.8c7.4,3.4,15,6.1,22.7,8c4.6,5.6,12,8.6,19.7,7.3
		l27.5-4.8c5.1-0.6,10.4-1.6,15.6-2.7l14-2.5c0.2,0.3,0.4,0.7,0.6,1c4.3,6.4,11.9,9.9,19.6,9c5.6-0.7,11.2-1.4,16.8-2.4
		c10.4-1.9,20.8-4.6,31.3-9.8c1-0.5,2.8-1.4,4.9-2.6c5.1,3.1,11.3,4,17,2.2c16.7-5.2,32.6-20.6,47.5-38c0.3-0.2,0.5-0.4,0.8-0.5
		c11-7.7,20.1-20.7,28.3-35.6c1.2-1.4,2.3-2.8,3.4-4c3.2-3.6,5-8,5.2-12.5c1.8-3.7,3.6-7.3,5.3-10.9c4.7-9.6,9.1-18.6,13-25.2
		c13.9-23.2,21.6-43.9,29.8-65.9c2.2-5.9,4.4-11.9,6.9-18.3c2.2-5.7,1.8-12-1.1-17.3C861.5,767.5,856.4,763.8,850.4,762.6
		L850.4,762.6z M793.3,853.2c-4.9,8.1-9.7,18-14.8,28.4c-2.3,4.8-5,10.2-7.8,15.8c-11.5,9.2-18.9,21.4-24.8,33.3
		c-0.5,0.6-1,1.2-1.5,1.8c-6.3-1.9-13.3-0.6-18.8,3.7c-3.9,3.1-7.4,6.5-10.6,10.1c-6.4,4.8-16.3,10.9-25.6,16
		c-4.7-5.4-11.9-8.2-19.3-6.9l-0.4,0.1c-17.2,3.4-34.6,6.5-51.9,9.5c-0.7,0-1.5,0.1-2.3,0.3l-16.7,3c-16.7,1.7-31.8-0.6-45.8-7.1
		c-5.9-2.7-11.4-6.3-17.3-10.1c-11.8-7.5-26.3-16.8-44.5-17.5c0-0.1-0.1-0.1-0.2-0.2c-10-12.5-20.9-18.4-31.1-21.9
		c-1.4-1.8-3-3.8-4.6-5.8c-4.3-5.5-8.9-11.5-14.4-17c31.3-3.4,62.9-8.6,94.1-13.7c22.9-3.7,44.5-7.3,65.3-10
		c48-6.4,94.9-18.5,143.2-37.3c14.8-5.7,46.9-18.2,72.4-23.1C809.6,821.3,803.2,836.6,793.3,853.2L793.3,853.2z"></path>
</g>
</svg><style>@media (prefers-color-scheme: light) { :root { filter: none; } }
@media (prefers-color-scheme: dark) { :root { filter: invert(100%); } }
</style></svg>