<?xml version="1.0" standalone="no"?>
<!DOCTYPE svg PUBLIC "-//W3C//DTD SVG 20010904//EN"
 "http://www.w3.org/TR/2001/REC-SVG-20010904/DTD/svg10.dtd">
<svg version="1.0" xmlns="http://www.w3.org/2000/svg"
 width="700.000000pt" height="700.000000pt" viewBox="0 0 700.000000 700.000000"
 preserveAspectRatio="xMidYMid meet">
<metadata>
Created by potrace 1.14, written by Peter Selinger 2001-2017
</metadata>
<g transform="translate(0.000000,700.000000) scale(0.100000,-0.100000)"
fill="#000000" stroke="none">
<path d="M2880 6490 c-35 -14 -70 -69 -70 -111 0 -19 9 -49 21 -68 11 -18 19
-34 17 -35 -2 -1 -62 -21 -134 -45 -134 -43 -326 -131 -423 -194 -50 -32 -56
-33 -80 -21 -54 28 -106 9 -176 -66 -28 -29 -70 -74 -95 -99 -25 -25 -84 -105
-132 -176 -89 -135 -180 -225 -227 -225 -42 0 -102 -34 -140 -77 l-38 -45 -13
53 c-15 63 -71 235 -169 517 -39 112 -80 240 -92 284 -22 83 -54 132 -92 144
-12 3 -31 14 -42 24 -11 10 -37 23 -57 28 -30 8 -44 7 -78 -10 -37 -19 -47
-32 -95 -132 -52 -108 -112 -274 -140 -386 -42 -170 -54 -218 -58 -245 -13
-74 -28 -140 -63 -270 -20 -77 -37 -144 -38 -150 -1 -5 -5 -19 -9 -30 -3 -11
-8 -31 -11 -45 -2 -14 -11 -52 -19 -85 -9 -33 -19 -75 -22 -94 -3 -19 -8 -37
-10 -41 -2 -3 -6 -17 -9 -31 -2 -13 -10 -49 -16 -79 -6 -30 -13 -66 -16 -80
-2 -14 -7 -38 -11 -55 -11 -52 -10 -66 9 -104 12 -24 35 -47 67 -65 34 -20 51
-37 54 -55 3 -14 24 -55 45 -91 l40 -65 -29 -29 c-38 -39 -43 -72 -25 -163 34
-174 40 -241 26 -293 -27 -98 -23 -127 22 -168 29 -28 29 -29 38 -183 5 -103
15 -179 29 -229 19 -69 19 -76 4 -85 -63 -39 -68 -49 -70 -142 -2 -105 22
-207 91 -391 25 -68 46 -128 46 -133 0 -5 -9 -22 -20 -37 -25 -34 -30 -68 -17
-106 10 -29 17 -40 70 -101 15 -18 37 -55 49 -81 11 -27 32 -66 45 -86 13 -21
20 -38 15 -38 -15 0 -42 -58 -42 -90 0 -55 28 -88 109 -126 77 -37 180 -108
219 -153 27 -31 106 -149 192 -286 34 -55 80 -125 103 -155 29 -39 40 -63 39
-84 -5 -65 48 -135 104 -136 37 -1 90 -27 143 -68 29 -23 80 -55 112 -70 45
-20 57 -31 52 -42 -4 -8 -8 -39 -8 -68 0 -80 25 -97 210 -151 96 -28 203 -68
295 -112 80 -37 163 -72 185 -78 54 -15 145 -13 173 3 30 16 62 65 62 94 0 22
3 23 61 20 l62 -3 3 -42 c8 -103 85 -170 205 -174 30 -1 90 2 134 7 88 10 137
10 455 2 242 -6 281 -1 337 46 21 18 72 49 113 68 46 22 97 57 130 89 78 75
167 113 337 145 158 29 179 38 212 88 19 27 36 39 78 51 38 11 59 13 72 5 30
-15 83 -12 113 8 15 9 82 62 150 118 68 55 168 132 223 169 118 81 209 152
262 203 13 13 38 29 57 37 37 16 76 58 76 84 0 17 8 30 76 127 88 126 149 266
218 494 56 188 147 455 159 466 3 3 21 1 40 -4 27 -8 44 -6 76 9 60 27 83 83
85 204 1 86 -6 163 -18 195 -3 8 -7 26 -10 40 -2 14 -11 55 -20 92 -9 37 -19
107 -22 155 -4 49 -7 94 -9 102 -1 8 4 30 11 50 6 19 10 45 8 56 -2 11 -9 45
-15 75 -11 58 -13 71 -24 220 -4 52 -9 98 -11 101 -2 3 -6 26 -9 49 -3 24 -7
46 -10 49 -3 2 5 15 17 29 68 72 -1 346 -154 604 -32 55 -38 70 -29 87 27 50
17 76 -106 268 -122 193 -222 321 -322 415 -49 46 -120 122 -157 169 -76 94
-228 249 -289 294 -22 17 -42 33 -45 36 -25 29 -242 160 -350 211 -57 27 -196
79 -210 78 -4 0 -60 11 -80 15 -49 12 -192 20 -262 16 -10 -1 -33 -15 -53 -32
-31 -28 -38 -30 -63 -20 -74 30 -244 45 -318 26 -16 -3 -27 3 -40 23 -30 46
-86 91 -159 127 -82 40 -136 54 -278 71 -39 4 -68 14 -86 30 -16 13 -48 32
-72 43 -24 10 -74 32 -111 49 -142 66 -279 95 -338 72z m370 -416 c81 -6 92
-10 225 -79 77 -40 174 -91 215 -113 120 -65 262 -125 292 -124 51 1 97 23
115 53 22 37 50 38 128 0 79 -37 137 -84 270 -219 130 -133 168 -150 241 -111
50 26 69 111 39 169 l-15 30 27 -11 c77 -29 194 -96 257 -147 87 -69 237 -218
337 -332 41 -47 76 -87 79 -90 3 -3 52 -59 110 -125 113 -130 172 -194 266
-289 114 -115 127 -143 184 -396 28 -124 54 -236 56 -250 3 -14 19 -86 35
-160 17 -74 32 -174 34 -222 2 -52 12 -113 24 -150 25 -78 37 -293 16 -306
-32 -19 -47 -74 -49 -188 -1 -103 -3 -115 -25 -138 -17 -18 -34 -70 -67 -203
-24 -98 -45 -189 -47 -203 -15 -93 -54 -192 -109 -278 -106 -169 -187 -355
-228 -522 -30 -119 -52 -153 -134 -210 -42 -29 -71 -58 -83 -82 -13 -26 -44
-55 -108 -99 -49 -34 -135 -98 -191 -142 l-100 -79 -131 -33 c-170 -42 -407
-123 -723 -247 -140 -55 -307 -119 -370 -143 -63 -24 -142 -53 -175 -65 -48
-18 -85 -24 -182 -26 l-123 -3 16 31 c42 82 -18 172 -118 177 -83 5 -144 4
-271 -4 l-119 -7 6 34 c7 45 -26 112 -63 128 -16 6 -57 13 -92 16 -83 5 -376
6 -411 1 -21 -3 -56 15 -155 84 -183 125 -268 174 -351 202 -79 26 -118 57
-178 138 -30 41 -32 49 -22 76 22 58 3 100 -83 186 -43 44 -79 84 -79 89 0 16
-75 119 -218 298 -104 130 -137 178 -128 185 47 38 56 86 30 156 -15 42 -71
252 -154 574 -21 83 -49 186 -62 231 l-24 81 27 15 c78 45 82 124 25 418 -14
69 -27 150 -30 180 -2 30 -10 78 -16 107 -9 43 -9 56 4 82 l16 30 57 -20 c32
-11 59 -19 61 -19 1 0 12 -2 25 -5 53 -12 86 -17 150 -22 67 -6 67 -6 101 30
18 20 36 46 38 59 27 123 60 223 86 261 60 87 99 257 98 429 l-1 86 36 6 c36
6 99 62 99 87 0 14 73 159 118 234 90 151 137 205 389 443 229 216 440 334
753 420 173 48 183 50 225 46 22 -3 78 -7 125 -10z m-2260 -311 c7 -27 14 -52
15 -58 17 -77 68 -241 112 -360 99 -271 96 -256 96 -410 1 -127 -6 -248 -17
-315 -3 -14 -7 -41 -10 -60 -6 -36 -11 -65 -22 -114 -6 -28 -7 -29 -63 -23
-31 3 -78 13 -106 22 -56 19 -225 102 -285 140 l-40 25 5 93 c2 50 6 101 8
112 3 11 8 45 12 75 4 30 9 62 10 70 2 8 6 38 9 65 11 77 16 115 26 175 5 30
11 72 15 93 14 101 39 197 63 247 43 87 146 270 153 270 4 0 12 -21 19 -47z"/>
<path d="M4247 4440 c-62 -19 -317 -265 -428 -413 -124 -165 -161 -265 -205
-547 -3 -19 -14 -75 -25 -124 -16 -71 -17 -95 -9 -122 14 -42 51 -71 99 -80
20 -4 51 -20 69 -35 25 -23 43 -29 77 -29 89 0 104 29 349 647 146 371 122
346 234 239 72 -69 130 -143 257 -331 136 -200 202 -284 242 -304 12 -6 40
-11 62 -11 33 0 47 7 76 35 42 42 46 85 16 169 l-19 53 66 -23 c104 -38 169
-27 204 35 54 96 -110 430 -304 618 -121 118 -196 165 -321 203 -79 24 -216
17 -278 -16 -24 -12 -29 -11 -40 3 -14 16 -71 44 -86 42 -4 0 -21 -5 -36 -9z
m442 -280 c70 -33 187 -143 254 -238 45 -64 42 -64 -93 1 -100 48 -169 113
-218 205 -39 72 -34 75 57 32z"/>
<path d="M2185 4068 c-55 -30 -244 -211 -346 -328 -165 -192 -210 -292 -260
-580 -16 -95 -32 -177 -35 -181 -3 -5 -7 -29 -10 -53 -9 -72 43 -136 111 -136
17 0 34 -9 47 -25 25 -32 77 -46 123 -34 42 12 78 54 111 134 62 147 324 805
324 815 0 17 20 11 64 -19 77 -53 163 -163 378 -478 133 -195 194 -242 270
-210 73 31 93 93 61 190 -11 31 -17 57 -13 57 4 0 36 -11 71 -24 98 -37 160
-22 193 47 18 39 14 75 -20 168 -93 259 -323 527 -529 617 -119 51 -263 58
-348 17 -25 -13 -31 -12 -64 11 -39 26 -94 31 -128 12z m443 -260 c60 -28 115
-68 175 -130 62 -65 141 -168 128 -168 -37 0 -231 104 -259 139 -30 37 -89
128 -100 154 -14 33 -7 34 56 5z"/>
<path d="M4690 2539 c-85 -18 -316 -90 -395 -124 -16 -7 -75 -29 -131 -49
-236 -84 -435 -134 -684 -170 -84 -12 -249 -37 -298 -45 -45 -7 -55 -5 -65 9
-29 40 -65 53 -130 46 -34 -3 -71 -8 -82 -10 -40 -7 -101 -16 -155 -21 -30 -3
-73 -8 -95 -10 -22 -2 -65 -7 -96 -10 -31 -3 -66 -7 -76 -9 -11 -3 -44 -7 -74
-11 -87 -10 -252 -54 -281 -75 -17 -13 -43 -20 -70 -20 -75 0 -144 -65 -133
-126 2 -10 4 -24 4 -31 2 -30 53 -71 101 -83 70 -17 133 -83 192 -203 56 -112
90 -147 145 -151 26 -1 68 -19 124 -52 46 -27 91 -52 100 -55 8 -4 28 -24 44
-45 49 -65 108 -114 175 -147 105 -52 184 -38 216 38 l14 34 42 -24 c24 -14
72 -35 108 -46 36 -12 76 -30 90 -40 39 -28 65 -29 215 -3 77 13 155 27 173
30 25 4 39 0 63 -20 37 -31 60 -34 158 -22 30 4 93 20 140 37 47 17 95 30 106
30 11 -1 38 -2 61 -2 65 -3 134 42 270 176 81 80 144 153 188 218 36 54 66
102 66 108 0 15 55 129 126 259 34 63 79 156 99 205 20 50 40 99 45 110 31 72
63 174 63 201 0 38 -23 77 -60 101 -39 26 -182 27 -303 2z m32 -325 c-21 -49
-63 -134 -93 -189 -30 -55 -72 -134 -92 -176 -20 -41 -56 -95 -79 -120 -24
-25 -59 -72 -78 -106 -33 -57 -37 -61 -67 -58 -23 2 -46 -6 -78 -27 -25 -16
-45 -34 -45 -38 0 -8 -71 -57 -137 -95 -31 -18 -33 -18 -53 0 -30 27 -88 24
-320 -19 -291 -54 -379 -45 -538 55 -98 62 -176 99 -225 105 -32 5 -56 18 -92
50 -28 24 -71 54 -96 67 -29 14 -65 46 -97 84 -29 34 -52 64 -52 66 0 3 30 8
67 12 37 4 76 8 87 10 12 2 37 6 56 9 19 3 107 16 195 30 88 14 178 28 200 31
22 3 51 8 65 11 14 3 41 8 60 10 19 2 50 6 68 9 17 3 49 8 70 11 151 22 296
48 347 61 33 8 71 17 85 19 59 11 304 89 481 154 105 39 233 82 283 96 50 14
96 27 101 28 6 2 11 2 13 1 1 -1 -15 -42 -36 -91z"/>
</g>
</svg>
