<?xml version="1.0" standalone="no"?>
<!DOCTYPE svg PUBLIC "-//W3C//DTD SVG 20010904//EN"
 "http://www.w3.org/TR/2001/REC-SVG-20010904/DTD/svg10.dtd">
<svg version="1.0" xmlns="http://www.w3.org/2000/svg"
 width="16.000000pt" height="16.000000pt" viewBox="0 0 16.000000 16.000000"
 preserveAspectRatio="xMidYMid meet">
<metadata>
Created by potrace 1.11, written by Peter Selinger 2001-2013
</metadata>
<g transform="translate(0.000000,16.000000) scale(0.008889,-0.008889)"
fill="#000000" stroke="none">
<path d="M0 900 l0 -900 900 0 900 0 0 900 0 900 -900 0 -900 0 0 -900z m627
128 c79 -79 143 -147 143 -153 0 -6 -67 -77 -148 -158 l-148 -148 -27 21 c-15
12 -27 27 -27 33 0 6 54 66 120 132 l120 120 -120 120 c-66 66 -120 124 -120
129 0 16 32 46 49 46 9 0 80 -64 158 -142z m778 -458 l0 -35 -305 0 -305 0 -3
23 c-8 54 -16 53 310 50 l303 -3 0 -35z"/>
</g>
</svg>
